<svg xmlns="http://www.w3.org/2000/svg" width="800" height="520" viewBox="0 0 800 520" role="img"><defs><linearGradient id="g" x1="0" y1="0" x2="0" y2="1" gradientTransform="rotate(-4 .5 .5)"><stop offset="0%" stop-color="#166b6b"/><stop offset="100%" stop-color="#3bb2a6"/></linearGradient><linearGradient id="gs" x1="0" y1="0" x2="1" y2="1"><stop offset="0%" stop-color="#ffffff" stop-opacity=".18"/><stop offset="100%" stop-color="#ffffff" stop-opacity="0"/></linearGradient></defs><rect width="800" height="520" fill="url(#g)"/><circle cx="120" cy="250" r="46" fill="#ffe9b0" opacity=".85"/><rect x="0" y="340" width="800" height="180" fill="#06222e" opacity=".33"/><path d="M0 366 Q 230 354 400 366 T 800 366" stroke="#ffffff" stroke-opacity="0.16" fill="none" stroke-width="3"/><path d="M0 396 Q 235 384 400 396 T 800 396" stroke="#ffffff" stroke-opacity="0.14" fill="none" stroke-width="3"/><path d="M0 426 Q 217 414 400 426 T 800 426" stroke="#ffffff" stroke-opacity="0.12" fill="none" stroke-width="3"/><path d="M0 456 Q 228 444 400 456 T 800 456" stroke="#ffffff" stroke-opacity="0.10" fill="none" stroke-width="3"/><path d="M0 486 Q 234 474 400 486 T 800 486" stroke="#ffffff" stroke-opacity="0.08" fill="none" stroke-width="3"/><rect width="800" height="520" fill="url(#gs)"/><text x="784" y="506" font-size="11" fill="#ffffff" opacity=".28" text-anchor="end" font-family="system-ui,sans-serif">waterline placeholder</text></svg>